<?xml version="1.0" encoding="UTF-8"?>
<svg width="1200pt" height="1200pt" version="1.1" viewBox="0 0 1200 1200" xmlns="http://www.w3.org/2000/svg">
 <path d="m187.5 337.5c0-14.918 5.9258-29.227 16.477-39.773 10.547-10.551 24.855-16.477 39.773-16.477h712.5c20.098 0 38.664 10.723 48.715 28.125 10.047 17.402 10.047 38.848 0 56.25-10.051 17.402-28.617 28.125-48.715 28.125h-712.5c-14.918 0-29.227-5.9258-39.773-16.477-10.551-10.547-16.477-24.855-16.477-39.773zm768.75 206.25h-712.5c-20.098 0-38.664 10.723-48.715 28.125-10.047 17.402-10.047 38.848 0 56.25 10.051 17.402 28.617 28.125 48.715 28.125h712.5c20.098 0 38.664-10.723 48.715-28.125 10.047-17.402 10.047-38.848 0-56.25-10.051-17.402-28.617-28.125-48.715-28.125zm0 262.5h-712.5c-20.098 0-38.664 10.723-48.715 28.125-10.047 17.402-10.047 38.848 0 56.25 10.051 17.402 28.617 28.125 48.715 28.125h712.5c20.098 0 38.664-10.723 48.715-28.125 10.047-17.402 10.047-38.848 0-56.25-10.051-17.402-28.617-28.125-48.715-28.125z" fill="#fff"/>
</svg>
