<svg width="59" height="59" viewBox="0 0 59 59" fill="none" xmlns="http://www.w3.org/2000/svg">
<g filter="url(#filter0_d_431_324)">
<circle cx="29.5" cy="25.5" r="25.5" fill="white"/>
</g>
<path d="M19.5142 27.9848L19.5736 28.0706C19.6462 28.1796 19.7221 28.2852 19.798 28.4006L28.3978 40.7558C28.6489 41.1164 29.0605 41.3314 29.5 41.3314C29.9394 41.3314 30.3511 41.1165 30.6021 40.7558L39.1821 28.4105C39.2646 28.2951 39.3438 28.1828 39.4231 28.0805L39.4759 28.0014C41.029 25.5982 41.6626 22.7153 41.2603 19.8823C40.8579 17.0492 39.4466 14.4568 37.2857 12.581C35.1248 10.7054 32.3597 9.67261 29.4983 9.67261C26.6369 9.67261 23.8715 10.7054 21.7108 12.581C19.5499 14.4567 18.1386 17.0492 17.7363 19.8823C17.334 22.7153 17.9675 25.5981 19.5208 28.0014L19.5142 27.9848ZM29.5 16.6097C30.8128 16.6097 32.0719 17.1312 33.0002 18.0596C33.9286 18.9879 34.4501 20.2469 34.4501 21.5598C34.4501 22.8727 33.9286 24.1317 33.0002 25.06C32.072 25.9882 30.8129 26.5098 29.5 26.5098C28.1871 26.5098 26.9281 25.9882 25.9998 25.06C25.0715 24.1316 24.5499 22.8725 24.5499 21.5598C24.5499 20.247 25.0715 18.988 25.9998 18.0596C26.9281 17.1312 28.1871 16.6097 29.5 16.6097Z" fill="#DEC6A0"/>
<defs>
<filter id="filter0_d_431_324" x="0" y="0" width="59" height="59" filterUnits="userSpaceOnUse" color-interpolation-filters="sRGB">
<feFlood flood-opacity="0" result="BackgroundImageFix"/>
<feColorMatrix in="SourceAlpha" type="matrix" values="0 0 0 0 0 0 0 0 0 0 0 0 0 0 0 0 0 0 127 0" result="hardAlpha"/>
<feOffset dy="4"/>
<feGaussianBlur stdDeviation="2"/>
<feComposite in2="hardAlpha" operator="out"/>
<feColorMatrix type="matrix" values="0 0 0 0 0 0 0 0 0 0 0 0 0 0 0 0 0 0 0.25 0"/>
<feBlend mode="normal" in2="BackgroundImageFix" result="effect1_dropShadow_431_324"/>
<feBlend mode="normal" in="SourceGraphic" in2="effect1_dropShadow_431_324" result="shape"/>
</filter>
</defs>
</svg>
