<svg width="532" height="188" viewBox="0 0 532 188" fill="none" xmlns="http://www.w3.org/2000/svg">
<g clip-path="url(#clip0_537_484)">
<mask id="mask0_537_484" style="mask-type:luminance" maskUnits="userSpaceOnUse" x="0" y="0" width="532" height="188">
<path d="M532 0H0V188H532V0Z" fill="white"/>
</mask>
<g mask="url(#mask0_537_484)">
<mask id="mask1_537_484" style="mask-type:luminance" maskUnits="userSpaceOnUse" x="-119" y="0" width="754" height="393">
<path d="M634.101 0H-118.222V392.114H634.101V0Z" fill="white"/>
</mask>
<g mask="url(#mask1_537_484)">
<path d="M71.7833 0L-1.06592 188.129H24.3637L84.8872 22.6513H85.4192L144.878 188.129H172.396L99.3012 0H71.7833Z" fill="#F3F3F3"/>
<path d="M268.34 107.779C274.442 107.779 279.356 108.685 283 110.538C286.686 112.392 289.634 114.821 291.927 117.91C294.18 120.999 295.858 124.582 296.923 128.701C297.988 132.819 298.848 137.184 299.544 141.756C300.404 146.327 300.936 150.981 301.1 155.717C301.264 160.454 301.428 164.901 301.632 169.02C301.796 173.138 302.205 176.886 302.819 180.222C303.434 183.558 304.621 186.194 306.341 188.129H334.105C331.485 184.958 329.519 181.334 328.208 177.174C326.898 173.056 325.874 168.69 325.178 164.119C324.482 159.548 324.032 154.894 323.868 150.157C323.704 145.421 323.418 140.767 323.09 136.196C322.557 131.625 321.82 127.218 320.878 123.017C319.936 118.817 318.422 114.986 316.415 111.568C314.408 108.149 311.706 105.184 308.307 102.754C304.908 100.284 300.486 98.5539 295.08 97.4828V96.9473C306.423 93.7766 314.695 87.8868 319.855 79.2796C325.014 70.6719 327.594 60.6644 327.594 49.2562C327.594 33.9769 322.557 21.9512 312.525 13.1789C302.41 4.4067 288.487 0 270.674 0H182.469L190.659 21.0863H269.364C281.076 21.0863 289.552 24.0927 294.794 30.0644C300.035 36.0361 302.656 43.7788 302.656 53.2511C302.656 60.0875 301.468 65.6888 299.134 69.972C296.759 74.296 293.647 77.7144 289.716 80.2266C285.785 82.7802 281.198 84.4689 275.957 85.3746C270.715 86.2394 221.986 86.6927 216.211 86.6927L224.402 107.779H268.381H268.34Z" fill="#F3F3F3"/>
<path d="M515.143 14.6204C505.438 4.85973 491.187 0 472.309 0H390.329V188.129H415.226V21.0863H463.956C478.124 21.0863 488.443 24.0515 494.996 29.8997C501.547 35.789 504.823 44.3553 504.823 55.5986C504.823 66.8421 501.547 75.4492 494.996 81.4212C488.443 87.3926 478.083 90.2755 463.956 90.1111H457.568V111.197H472.309C491.187 111.362 505.438 106.543 515.143 96.7002C524.848 86.8576 529.68 73.1841 529.68 55.5986C529.68 38.013 524.848 24.381 515.143 14.6204Z" fill="#F3F3F3"/>
</g>
</g>
</g>
<defs>
<clipPath id="clip0_537_484">
<rect width="532" height="188" fill="white"/>
</clipPath>
</defs>
</svg>
