<svg width="99" height="35" viewBox="0 0 99 35" fill="none" xmlns="http://www.w3.org/2000/svg">
<g clip-path="url(#clip0_204_290)">
<g clip-path="url(#clip1_204_290)">
<path d="M13.3582 0L-0.198334 35.0241H4.53387L15.7967 4.21699H15.8957L26.9604 35.0241H32.0812L18.479 0H13.3582Z" fill="white"/>
<path d="M49.9356 20.0652C51.071 20.0652 51.9854 20.2339 52.6636 20.5789C53.3495 20.924 53.8981 21.3763 54.3249 21.9514C54.744 22.5264 55.0564 23.1935 55.2545 23.9602C55.4527 24.7269 55.6127 25.5396 55.7422 26.3907C55.9023 27.2418 56.0013 28.1082 56.0318 28.9899C56.0623 29.8717 56.0928 30.6997 56.1309 31.4664C56.1613 32.2332 56.2375 32.9309 56.3518 33.5519C56.4662 34.173 56.6871 34.6637 57.0072 35.0241H62.1738C61.6861 34.4337 61.3203 33.759 61.0764 32.9846C60.8326 32.2178 60.6421 31.4051 60.5125 30.554C60.383 29.703 60.2992 28.8366 60.2687 27.9548C60.2382 27.0731 60.1849 26.2067 60.1239 25.3556C60.0248 24.5046 59.8877 23.6842 59.7124 22.9021C59.5371 22.1201 59.2552 21.407 58.8818 20.7706C58.5084 20.1342 58.0055 19.5822 57.373 19.1298C56.7405 18.6698 55.9175 18.3478 54.9116 18.1484V18.0487C57.0224 17.4584 58.5617 16.3619 59.5219 14.7595C60.482 13.157 60.9621 11.2939 60.9621 9.17004C60.9621 6.32549 60.0248 4.08665 58.1579 2.45352C56.2756 0.820397 53.6847 0 50.3699 0H33.9558L35.4799 3.92564H50.1261C52.3055 3.92564 53.8829 4.48535 54.8583 5.5971C55.8337 6.70885 56.3214 8.1503 56.3214 9.91377C56.3214 11.1865 56.1004 12.2293 55.666 13.0267C55.224 13.8317 54.6449 14.4681 53.9134 14.9358C53.1818 15.4112 52.3283 15.7256 51.3529 15.8942C50.3775 16.0552 41.3094 16.1396 40.2349 16.1396L41.759 20.0652H49.9432H49.9356Z" fill="white"/>
<path d="M95.8631 2.72188C94.0571 0.904737 91.4052 0 87.8922 0H72.6364V35.0241H77.2696V3.92564H86.3377C88.9743 3.92564 90.8946 4.47768 92.1139 5.56643C93.3331 6.66285 93.9427 8.25764 93.9427 10.3508C93.9427 12.444 93.3331 14.0464 92.1139 15.1582C90.8946 16.2699 88.9667 16.8066 86.3377 16.776H85.1489V20.7016H87.8922C91.4052 20.7323 94.0571 19.8352 95.8631 18.0027C97.6691 16.1703 98.5683 13.6247 98.5683 10.3508C98.5683 7.07688 97.6691 4.53902 95.8631 2.72188Z" fill="white"/>
</g>
</g>
<defs>
<clipPath id="clip0_204_290">
<rect width="99" height="35" fill="white"/>
</clipPath>
<clipPath id="clip1_204_290">
<rect width="140" height="73" fill="white" transform="translate(-22)"/>
</clipPath>
</defs>
</svg>
