<svg width="405" height="210" viewBox="0 0 405 210" fill="none" xmlns="http://www.w3.org/2000/svg">
<g clip-path="url(#clip0_204_295)">
<path d="M248.485 204.177C248.595 204.971 248.815 205.567 249.146 205.942C249.741 206.647 250.777 207 252.232 207C253.092 207 253.797 206.912 254.348 206.714C255.385 206.361 255.892 205.677 255.892 204.706C255.892 204.133 255.649 203.692 255.142 203.383C254.635 203.074 253.841 202.81 252.739 202.567L250.865 202.148C249.036 201.751 247.757 201.31 247.074 200.825C245.905 200.03 245.332 198.773 245.332 197.075C245.332 195.531 245.905 194.23 247.052 193.215C248.198 192.2 249.873 191.671 252.078 191.671C253.93 191.671 255.495 192.156 256.795 193.127C258.096 194.097 258.779 195.487 258.846 197.34H255.385C255.318 196.303 254.855 195.553 253.996 195.134C253.423 194.847 252.695 194.693 251.835 194.693C250.887 194.693 250.116 194.891 249.543 195.266C248.97 195.641 248.683 196.171 248.683 196.832C248.683 197.45 248.97 197.913 249.521 198.222C249.873 198.42 250.645 198.663 251.813 198.928L254.855 199.633C256.178 199.942 257.17 200.361 257.854 200.891C258.89 201.707 259.397 202.876 259.397 204.42C259.397 205.964 258.779 207.309 257.567 208.346C256.354 209.382 254.635 209.912 252.386 209.912C250.138 209.912 248.33 209.404 247.03 208.368C245.729 207.331 245.068 205.92 245.068 204.133H248.507L248.485 204.177Z" fill="white"/>
<path d="M229.328 192.222V195.288H234.531V209.515H238.146V195.288H243.326V192.222H229.328Z" fill="white"/>
<path d="M221.723 196.193L223.905 202.986H219.474L221.723 196.193ZM219.717 192.245L213.544 209.537H217.314L218.482 205.986H224.853L225.999 209.537H229.923L223.817 192.245H219.717Z" fill="white"/>
<path d="M199.414 194.031C200.803 192.597 202.566 191.892 204.726 191.892C207.614 191.892 209.709 192.84 211.031 194.759C211.759 195.84 212.155 196.898 212.222 197.979H208.606C208.386 197.141 208.077 196.523 207.725 196.104C207.085 195.354 206.137 194.98 204.859 194.98C203.58 194.98 202.566 195.509 201.817 196.568C201.067 197.626 200.714 199.126 200.714 201.067C200.714 203.008 201.111 204.464 201.883 205.412C202.654 206.361 203.668 206.868 204.881 206.868C206.093 206.868 207.063 206.449 207.702 205.633C208.055 205.192 208.364 204.53 208.606 203.626H212.2C211.891 205.5 211.097 207.044 209.819 208.213C208.54 209.404 206.909 209.978 204.925 209.978C202.478 209.978 200.538 209.184 199.127 207.596C197.716 205.986 197.011 203.802 197.011 201.001C197.011 197.979 197.805 195.663 199.414 194.031Z" fill="white"/>
<path d="M189.802 205.346C190.64 204.287 191.059 202.788 191.059 200.847C191.059 198.906 190.64 197.406 189.802 196.347C188.965 195.288 187.818 194.759 186.408 194.759C184.997 194.759 183.828 195.288 182.991 196.347C182.131 197.406 181.712 198.906 181.712 200.847C181.712 202.788 182.131 204.287 182.991 205.346C183.85 206.405 184.975 206.934 186.408 206.934C187.84 206.934 188.965 206.405 189.802 205.346ZM192.051 207.971C190.75 209.316 188.854 209.978 186.386 209.978C183.917 209.978 182.021 209.316 180.72 207.971C178.979 206.317 178.097 203.934 178.097 200.847C178.097 197.759 178.979 195.31 180.72 193.722C182.021 192.377 183.917 191.715 186.386 191.715C188.854 191.715 190.75 192.377 192.051 193.722C193.792 195.31 194.674 197.692 194.674 200.847C194.674 204.001 193.814 206.317 192.051 207.971Z" fill="white"/>
<path d="M173.181 192.222L169.411 205.346L165.642 192.222H161.806L167.648 209.515H171.043L176.951 192.222H173.181Z" fill="white"/>
<path d="M153.804 196.193L155.986 202.986H151.555L153.804 196.193ZM151.798 192.245L145.625 209.537H149.395L150.563 205.986H156.934L158.08 209.537H162.004L155.898 192.245H151.798Z" fill="white"/>
<path d="M403.06 142.353C403.016 141.382 402.818 140.566 402.443 139.838C402.068 139.132 401.583 138.537 400.944 138.052C400.327 137.566 399.577 137.214 398.695 136.971C397.836 136.728 396.888 136.618 395.852 136.618C395.234 136.618 394.551 136.684 393.823 136.839C393.096 136.993 392.435 137.236 391.817 137.611C391.2 137.986 390.693 138.471 390.296 139.088C389.9 139.706 389.701 140.478 389.701 141.404C389.701 142.331 389.922 143.036 390.362 143.61C390.803 144.183 391.376 144.625 392.082 144.977C392.787 145.33 393.603 145.595 394.529 145.816C395.455 146.036 396.381 146.213 397.306 146.411C398.276 146.588 399.202 146.83 400.106 147.073C401.01 147.337 401.826 147.69 402.553 148.132C403.28 148.573 403.854 149.168 404.295 149.896C404.735 150.624 404.956 151.528 404.956 152.609C404.956 153.778 404.713 154.771 404.206 155.565C403.699 156.359 403.082 156.998 402.311 157.506C401.539 158.013 400.701 158.366 399.775 158.586C398.85 158.807 397.946 158.917 397.086 158.917C395.763 158.917 394.529 158.785 393.383 158.498C392.236 158.211 391.222 157.748 390.362 157.109C389.503 156.469 388.841 155.653 388.334 154.638C387.849 153.624 387.607 152.41 387.629 150.977H388.996C388.93 152.212 389.106 153.249 389.525 154.087C389.944 154.947 390.517 155.631 391.266 156.182C392.016 156.734 392.876 157.108 393.89 157.351C394.904 157.594 395.94 157.704 397.064 157.704C397.725 157.704 398.453 157.616 399.202 157.461C399.974 157.285 400.657 157.02 401.296 156.623C401.936 156.226 402.465 155.697 402.906 155.057C403.347 154.418 403.545 153.602 403.545 152.609C403.545 151.616 403.325 150.889 402.884 150.315C402.443 149.72 401.87 149.234 401.142 148.881C400.415 148.506 399.599 148.22 398.695 147.999C397.791 147.779 396.844 147.58 395.896 147.382C394.948 147.183 394.022 146.963 393.096 146.72C392.17 146.477 391.354 146.124 390.649 145.705C389.944 145.286 389.37 144.735 388.93 144.051C388.489 143.367 388.268 142.507 388.268 141.426C388.268 140.346 388.489 139.441 388.952 138.691C389.393 137.919 389.988 137.302 390.715 136.839C391.443 136.375 392.236 136.022 393.14 135.802C394.044 135.581 394.926 135.471 395.807 135.471C396.976 135.471 398.078 135.603 399.092 135.868C400.106 136.133 400.988 136.53 401.759 137.081C402.531 137.633 403.126 138.36 403.589 139.243C404.052 140.125 404.317 141.184 404.383 142.419H403.016L403.06 142.353Z" fill="#DEC6A0"/>
<path d="M381.082 135.956H379.693V158.344H381.082V135.956Z" fill="#DEC6A0"/>
<path d="M365.32 157.153C367.326 157.153 368.891 156.734 370.038 155.873C371.184 155.035 371.757 153.756 371.757 152.058C371.757 151.087 371.559 150.315 371.162 149.698C370.765 149.08 370.258 148.595 369.641 148.242C369.024 147.889 368.34 147.646 367.569 147.514C366.797 147.382 366.07 147.315 365.32 147.315H357.737V157.153H365.32ZM365.32 146.124C367.216 146.124 368.649 145.705 369.575 144.845C370.523 143.985 370.985 142.882 370.985 141.515C370.985 140.698 370.831 140.015 370.523 139.463C370.214 138.912 369.795 138.471 369.266 138.118C368.737 137.765 368.142 137.522 367.458 137.39C366.775 137.236 366.07 137.169 365.32 137.169H357.737V146.146H365.32V146.124ZM356.348 135.956H365.32C366.665 135.956 367.767 136.133 368.671 136.464C369.575 136.794 370.28 137.236 370.831 137.787C371.382 138.338 371.757 138.956 372 139.662C372.242 140.368 372.352 141.073 372.352 141.779C372.352 142.397 372.242 142.97 372.044 143.5C371.845 144.051 371.537 144.514 371.14 144.933C370.743 145.352 370.302 145.705 369.773 145.992C369.244 146.279 368.649 146.455 368.009 146.543L368.076 146.61C368.23 146.61 368.561 146.654 369.112 146.808C369.663 146.962 370.214 147.227 370.809 147.646C371.404 148.065 371.933 148.617 372.418 149.345C372.881 150.072 373.124 150.999 373.124 152.124C373.124 153.138 372.947 154.043 372.551 154.815C372.176 155.587 371.647 156.248 370.963 156.778C370.28 157.307 369.464 157.704 368.494 157.991C367.524 158.255 366.466 158.388 365.298 158.388H356.326V136L356.348 135.956Z" fill="#DEC6A0"/>
<path d="M346.384 149.984L341.578 137.324H341.512L336.53 149.984H346.384ZM340.785 135.978H342.284L351.123 158.366H349.646L346.825 151.175H336.111L333.267 158.366H331.79L340.785 135.978Z" fill="#DEC6A0"/>
<path d="M315.323 147.183H323.193C324.207 147.183 325.045 147.029 325.75 146.72C326.456 146.411 327.007 146.036 327.426 145.551C327.845 145.066 328.153 144.536 328.33 143.941C328.528 143.345 328.616 142.772 328.616 142.176C328.616 141.757 328.55 141.272 328.418 140.676C328.285 140.103 328.043 139.552 327.668 139.022C327.293 138.493 326.764 138.052 326.081 137.677C325.398 137.302 324.494 137.125 323.37 137.125H315.323V147.183ZM313.935 135.956H323.458C324.075 135.956 324.78 136.022 325.53 136.177C326.301 136.331 327.007 136.618 327.668 137.059C328.33 137.5 328.881 138.14 329.322 138.978C329.762 139.794 329.983 140.897 329.983 142.22C329.983 144.183 329.366 145.705 328.175 146.764C326.963 147.823 325.221 148.352 322.973 148.352H315.323V158.322H313.935V135.934V135.956Z" fill="#DEC6A0"/>
<path d="M294.822 149.234H288.12V150.425H294.822V149.234Z" fill="#DEC6A0"/>
<path d="M266.605 149.984L261.799 137.324H261.733L256.751 149.984H266.605ZM261.006 135.978H262.505L271.345 158.366H269.868L267.046 151.175H256.332L253.489 158.366H252.012L261.006 135.978Z" fill="#DEC6A0"/>
<path d="M234.641 137.147V135.956H251.791V137.147H243.877V158.344H242.511V137.147H234.641Z" fill="#DEC6A0"/>
<path d="M213.699 135.956V149.367C213.699 149.808 213.699 150.315 213.765 150.911C213.809 151.506 213.919 152.102 214.073 152.719C214.25 153.337 214.47 153.932 214.779 154.528C215.087 155.123 215.506 155.653 216.013 156.138C216.542 156.601 217.182 156.976 217.931 157.263C218.703 157.55 219.606 157.682 220.709 157.682C222.098 157.682 223.244 157.483 224.17 157.109C225.096 156.734 225.845 156.16 226.418 155.454C226.991 154.726 227.41 153.866 227.653 152.83C227.895 151.815 228.027 150.646 228.027 149.389V135.978H229.394V149.389C229.394 150.734 229.262 151.969 228.975 153.116C228.689 154.263 228.226 155.278 227.542 156.116C226.881 156.976 225.977 157.638 224.853 158.145C223.729 158.63 222.34 158.873 220.665 158.873C219.342 158.873 218.218 158.697 217.27 158.366C216.322 158.035 215.55 157.594 214.933 157.064C214.316 156.535 213.831 155.917 213.478 155.234C213.125 154.55 212.861 153.844 212.663 153.16C212.464 152.455 212.354 151.771 212.31 151.131C212.266 150.469 212.244 149.896 212.244 149.389V135.978H213.632L213.699 135.956Z" fill="#DEC6A0"/>
<path d="M198.466 146.962C199.282 146.962 200.031 146.874 200.736 146.654C201.442 146.455 202.037 146.146 202.544 145.727C203.051 145.308 203.448 144.779 203.734 144.139C204.021 143.5 204.175 142.706 204.175 141.823C204.175 140.985 204.021 140.279 203.712 139.684C203.404 139.088 202.985 138.603 202.456 138.228C201.927 137.853 201.332 137.588 200.648 137.412C199.965 137.236 199.237 137.169 198.488 137.169H190.53V146.985H198.488L198.466 146.962ZM189.119 135.956H198.466C199.458 135.956 200.362 136.045 201.221 136.265C202.081 136.464 202.831 136.794 203.47 137.236C204.109 137.677 204.616 138.272 204.991 139C205.366 139.728 205.542 140.632 205.542 141.735C205.542 143.235 205.123 144.514 204.264 145.551C203.426 146.588 202.235 147.227 200.736 147.47V147.536C201.75 147.668 202.566 147.933 203.161 148.352C203.757 148.771 204.197 149.278 204.484 149.896C204.771 150.514 204.969 151.175 205.057 151.903C205.145 152.631 205.189 153.359 205.189 154.109V155.388C205.189 155.807 205.211 156.204 205.256 156.557C205.3 156.932 205.366 157.263 205.454 157.572C205.542 157.88 205.674 158.145 205.851 158.366H204.308C204.021 157.836 203.845 157.241 203.823 156.535C203.801 155.829 203.779 155.101 203.779 154.351C203.779 153.602 203.734 152.852 203.69 152.102C203.624 151.352 203.426 150.69 203.095 150.117C202.765 149.521 202.235 149.058 201.508 148.705C200.781 148.352 199.766 148.176 198.444 148.176H190.486V158.366H189.097V135.978L189.119 135.956Z" fill="#DEC6A0"/>
<path d="M170.007 149.234H163.305V150.425H170.007V149.234Z" fill="#DEC6A0"/>
<path d="M128.453 135.956V149.367C128.453 149.808 128.453 150.315 128.519 150.911C128.563 151.506 128.673 152.102 128.828 152.719C129.004 153.337 129.224 153.932 129.533 154.528C129.842 155.123 130.26 155.653 130.767 156.138C131.297 156.601 131.936 156.976 132.685 157.263C133.457 157.55 134.361 157.682 135.463 157.682C136.83 157.682 137.998 157.483 138.924 157.109C139.85 156.711 140.599 156.16 141.172 155.454C141.746 154.726 142.164 153.866 142.407 152.83C142.649 151.815 142.782 150.646 142.782 149.389V135.978H144.148V149.389C144.148 150.734 144.016 151.969 143.73 153.116C143.443 154.263 142.98 155.278 142.297 156.116C141.635 156.976 140.732 157.638 139.607 158.145C138.483 158.63 137.094 158.873 135.419 158.873C134.096 158.873 132.972 158.697 132.024 158.366C131.076 158.035 130.305 157.594 129.687 157.064C129.07 156.535 128.585 155.917 128.232 155.234C127.88 154.55 127.615 153.844 127.417 153.16C127.218 152.455 127.108 151.771 127.064 151.131C127.02 150.469 126.998 149.896 126.998 149.389V135.978H128.387L128.453 135.956Z" fill="#DEC6A0"/>
<path d="M100.787 147.161C100.787 148.595 100.985 149.962 101.404 151.241C101.823 152.521 102.418 153.624 103.212 154.572C104.006 155.52 104.975 156.292 106.122 156.844C107.268 157.417 108.569 157.682 110.046 157.682C111.523 157.682 112.801 157.395 113.948 156.844C115.094 156.27 116.042 155.52 116.835 154.572C117.629 153.624 118.246 152.499 118.643 151.241C119.062 149.962 119.26 148.617 119.26 147.161C119.26 145.705 119.04 144.36 118.643 143.081C118.246 141.801 117.629 140.698 116.835 139.75C116.042 138.802 115.072 138.03 113.948 137.478C112.801 136.905 111.501 136.64 110.046 136.64C108.591 136.64 107.268 136.927 106.122 137.478C104.975 138.052 104.006 138.802 103.212 139.75C102.418 140.698 101.801 141.823 101.404 143.081C100.985 144.36 100.787 145.705 100.787 147.161ZM120.693 147.161C120.693 148.793 120.451 150.315 119.966 151.749C119.481 153.182 118.797 154.418 117.871 155.476C116.968 156.535 115.843 157.373 114.543 157.969C113.22 158.586 111.743 158.873 110.068 158.873C108.392 158.873 106.893 158.564 105.571 157.969C104.248 157.373 103.124 156.535 102.22 155.476C101.316 154.418 100.611 153.182 100.148 151.749C99.6628 150.315 99.4203 148.793 99.4203 147.161C99.4203 145.529 99.6628 144.007 100.148 142.573C100.633 141.14 101.316 139.904 102.22 138.846C103.124 137.787 104.248 136.949 105.571 136.353C106.893 135.758 108.392 135.449 110.068 135.449C111.743 135.449 113.242 135.758 114.543 136.353C115.865 136.971 116.968 137.787 117.871 138.846C118.775 139.904 119.481 141.14 119.966 142.573C120.451 144.007 120.693 145.529 120.693 147.161Z" fill="#DEC6A0"/>
<path d="M92.8731 135.956H91.4843V158.344H92.8731V135.956Z" fill="#DEC6A0"/>
<path d="M77.42 146.962C78.2357 146.962 78.9852 146.874 79.6906 146.654C80.396 146.455 80.9912 146.146 81.4982 145.727C82.0053 145.308 82.4021 144.779 82.6886 144.139C82.9752 143.5 83.1295 142.706 83.1295 141.823C83.1295 140.985 82.9752 140.279 82.6666 139.684C82.358 139.088 81.9391 138.603 81.4101 138.228C80.881 137.853 80.2858 137.588 79.6024 137.412C78.919 137.236 78.1916 137.169 77.4421 137.169H69.484V146.985H77.4421L77.42 146.962ZM68.0732 135.956H77.42C78.412 135.956 79.3158 136.045 80.1756 136.265C81.0353 136.464 81.7848 136.794 82.4241 137.236C83.0634 137.677 83.5704 138.272 83.9452 139C84.3199 139.728 84.4963 140.632 84.4963 141.735C84.4963 143.235 84.0774 144.514 83.2177 145.551C82.38 146.588 81.1896 147.227 79.6906 147.47V147.536C80.7046 147.668 81.5203 147.933 82.1155 148.352C82.7107 148.771 83.1516 149.278 83.4381 149.896C83.7247 150.514 83.9231 151.175 84.0113 151.903C84.0995 152.631 84.1436 153.359 84.1436 154.109V155.388C84.1436 155.807 84.1656 156.204 84.2097 156.557C84.2538 156.932 84.3199 157.263 84.4081 157.572C84.4963 157.88 84.6285 158.145 84.8049 158.366H83.2618C82.9752 157.836 82.7989 157.241 82.7768 156.535C82.7548 155.829 82.7327 155.101 82.7327 154.351C82.7327 153.602 82.7107 152.852 82.6446 152.102C82.5784 151.352 82.38 150.69 82.0494 150.117C81.7187 149.521 81.1896 149.058 80.4622 148.705C79.7347 148.352 78.7206 148.176 77.398 148.176H69.4399V158.366H68.0511V135.978L68.0732 135.956Z" fill="#DEC6A0"/>
<path d="M47.7041 147.183H55.574C56.588 147.183 57.4257 147.029 58.1311 146.72C58.8366 146.411 59.3877 146.036 59.8065 145.551C60.2254 145.066 60.534 144.536 60.7103 143.941C60.9087 143.345 60.9969 142.772 60.9969 142.176C60.9969 141.757 60.9308 141.272 60.8206 140.676C60.6883 140.103 60.4458 139.551 60.071 139.022C59.6963 138.493 59.1672 138.052 58.4838 137.677C57.8005 137.302 56.8966 137.125 55.7724 137.125H47.7262V147.161L47.7041 147.183ZM46.3153 135.956H55.8385C56.4558 135.956 57.1612 136.022 57.9107 136.177C58.6822 136.331 59.3877 136.618 60.049 137.059C60.7103 137.5 61.2614 138.14 61.7023 138.978C62.1432 139.794 62.3637 140.897 62.3637 142.22C62.3637 144.183 61.7464 145.705 60.556 146.764C59.3436 147.823 57.6021 148.352 55.3535 148.352H47.7041V158.322H46.3153V135.934V135.956Z" fill="#DEC6A0"/>
<path d="M25.9463 147.183H33.8161C34.8302 147.183 35.6679 147.029 36.3733 146.72C37.0787 146.411 37.6298 146.036 38.0487 145.551C38.4675 145.066 38.7761 144.536 38.9525 143.941C39.1509 143.345 39.2391 142.772 39.2391 142.176C39.2391 141.757 39.1729 141.272 39.0407 140.676C38.9084 140.103 38.6659 139.551 38.2912 139.022C37.9164 138.493 37.3873 138.052 36.704 137.677C36.0206 137.302 35.1168 137.125 33.9925 137.125H25.9463V147.183ZM24.5575 135.956H34.0807C34.6979 135.956 35.4033 136.022 36.1529 136.177C36.9244 136.331 37.6298 136.618 38.2912 137.059C38.9525 137.5 39.5036 138.14 39.9445 138.978C40.3854 139.794 40.6058 140.897 40.6058 142.22C40.6058 144.183 40.0106 145.705 38.7982 146.764C37.5857 147.823 35.8442 148.352 33.5957 148.352H25.9463V158.322H24.5575V135.934V135.956Z" fill="#DEC6A0"/>
<path d="M9.74363 137.302H9.80976L14.6154 149.962H4.76159L9.74363 137.302ZM8.99412 135.956L0 158.344H1.47698L4.32071 151.153H15.0343L17.856 158.344H19.333L10.4931 135.956H8.99412Z" fill="#DEC6A0"/>
<path d="M208.099 57.7219C211.384 57.7219 214.029 58.2071 215.991 59.1997C217.975 60.1922 219.562 61.4935 220.797 63.1478C222.009 64.802 222.913 66.7209 223.486 68.9266C224.059 71.1322 224.522 73.4702 224.897 75.9185C225.36 78.3668 225.647 80.8592 225.735 83.3957C225.823 85.9322 225.911 88.3143 226.021 90.5199C226.11 92.7256 226.33 94.7327 226.661 96.5193C226.991 98.3058 227.631 99.7175 228.556 100.754H243.503C242.092 99.0558 241.034 97.1148 240.328 94.8871C239.623 92.6814 239.072 90.3435 238.697 87.8952C238.322 85.4469 238.08 82.9545 237.992 80.418C237.903 77.8815 237.749 75.3891 237.573 72.9409C237.286 70.4926 236.889 68.1326 236.382 65.8828C235.875 63.633 235.06 61.5818 233.979 59.7511C232.899 57.9204 231.444 56.3323 229.615 55.031C227.785 53.7076 225.404 52.7812 222.494 52.2078V51.921C228.601 50.2227 233.054 47.0686 235.831 42.4588C238.609 37.849 239.998 32.4892 239.998 26.3796C239.998 18.1966 237.286 11.7561 231.885 7.05808C226.44 2.36005 218.945 0 209.356 0H161.872L166.281 11.2929H208.65C214.955 11.2929 219.518 12.9031 222.34 16.1013C225.162 19.2994 226.572 23.4461 226.572 28.5191C226.572 32.1804 225.933 35.1801 224.677 37.474C223.398 39.7899 221.723 41.6206 219.606 42.9661C217.49 44.3336 215.021 45.2379 212.2 45.7231C209.378 46.1863 183.145 46.4289 180.037 46.4289L184.446 57.7219H208.121H208.099Z" fill="white"/>
<path d="M340.961 7.83006C335.736 2.60267 328.065 0 317.902 0H273.77V100.754H287.173V11.2929H313.405C321.033 11.2929 326.588 12.881 330.115 16.013C333.642 19.1671 335.406 23.7549 335.406 29.7763C335.406 35.7977 333.642 40.4075 330.115 43.6057C326.588 46.8039 321.011 48.3479 313.405 48.2596H309.966V59.5526H317.902C328.065 59.6408 335.736 57.0602 340.961 51.7887C346.185 46.5172 348.787 39.1944 348.787 29.7763C348.787 20.3582 346.185 13.0575 340.961 7.83006Z" fill="white"/>
<path d="M102.286 0L63.0691 100.754H76.7587L109.34 12.1311H109.627L141.635 100.754H156.449L117.1 0H102.286Z" fill="white"/>
</g>
<defs>
<clipPath id="clip0_204_295">
<rect width="405" height="210" fill="white"/>
</clipPath>
</defs>
</svg>
