<svg width="480" height="643" viewBox="0 0 480 643" fill="none" xmlns="http://www.w3.org/2000/svg">
<path d="M429.709 49.0482C396.297 15.6357 347.236 -1 282.243 -1H0V643H85.7163V71.1821H253.483C302.263 71.1821 337.79 81.3327 360.347 101.352C382.904 121.512 394.182 150.836 394.182 189.324C394.182 227.812 382.904 257.277 360.347 277.719C337.79 298.161 302.122 308.03 253.483 307.466H231.49V379.648H282.243C347.236 380.212 396.297 363.717 429.709 330.023C463.122 296.328 479.757 249.523 479.757 189.324C479.757 129.125 463.122 82.4606 429.709 49.0482Z" fill="#F3F3F3"/>
</svg>
