<svg width="523" height="644" viewBox="0 0 523 644" fill="none" xmlns="http://www.w3.org/2000/svg">
<path d="M295.637 368.947C316.643 368.947 333.56 372.048 346.108 378.392C358.796 384.736 368.947 393.054 376.842 403.628C384.595 414.201 390.376 426.467 394.041 440.565C397.707 454.663 400.667 469.607 403.064 485.256C406.024 500.905 407.857 516.835 408.421 533.048C408.985 549.261 409.549 564.487 410.254 578.585C410.818 592.683 412.228 605.512 414.342 616.932C416.457 628.351 420.546 637.374 426.467 644H522.052C513.029 633.144 506.262 620.738 501.75 606.499C497.239 592.401 493.715 577.457 491.318 561.808C488.921 546.159 487.37 530.229 486.806 514.016C486.243 497.803 485.256 481.872 484.128 466.223C482.295 450.574 479.757 435.49 476.515 421.109C473.272 406.729 468.056 393.618 461.148 381.917C454.24 370.215 444.935 360.065 433.234 351.747C421.532 343.288 406.306 337.367 387.697 333.701V331.869C426.749 321.013 455.227 300.853 472.99 271.388C490.754 241.923 499.636 207.665 499.636 168.613C499.636 116.309 482.295 75.1427 447.755 45.1138C412.933 15.0849 364.999 0 303.673 0H0L28.1961 72.1821H299.161C339.482 72.1821 368.665 82.4737 386.71 102.916C404.756 123.358 413.778 149.863 413.778 182.288C413.778 205.691 409.69 224.864 401.654 239.526C393.477 254.329 382.763 266.031 369.229 274.63C355.694 283.371 339.905 289.151 321.859 292.253C303.814 295.214 136.046 296.764 116.168 296.764L144.364 368.947H295.778H295.637Z" fill="#F3F3F3"/>
</svg>
